<mxfile host="www.draw.io" modified="2020-02-21T19:48:09.822Z" agent="Mozilla/5.0 (X11; Ubuntu; Linux x86_64; rv:71.0) Gecko/20100101 Firefox/71.0" etag="0pGQt3TB2tEEo64fWlTt" version="12.7.3" type="github">
  <diagram id="OBTY19V2pep727sq7JFN" name="Page-1">
    <mxGraphModel dx="2274" dy="757" grid="1" gridSize="10" guides="1" tooltips="1" connect="1" arrows="1" fold="1" page="1" pageScale="1" pageWidth="827" pageHeight="1169" math="0" shadow="0">
      <root>
        <mxCell id="0" />
        <mxCell id="1" parent="0" />
        <mxCell id="1PWrfDdkgmt_y7GgeJpY-1" value="Propietario &lt;br&gt;de restaurante" style="shape=umlActor;verticalLabelPosition=bottom;labelBackgroundColor=#ffffff;verticalAlign=top;html=1;outlineConnect=0;" parent="1" vertex="1">
          <mxGeometry x="109" y="40" width="30" height="60" as="geometry" />
        </mxCell>
        <mxCell id="1PWrfDdkgmt_y7GgeJpY-2" value="Cliente" style="shape=umlActor;verticalLabelPosition=bottom;labelBackgroundColor=#ffffff;verticalAlign=top;html=1;outlineConnect=0;" parent="1" vertex="1">
          <mxGeometry x="414" y="620" width="30" height="60" as="geometry" />
        </mxCell>
        <mxCell id="1PWrfDdkgmt_y7GgeJpY-3" value="Repartidor" style="shape=umlActor;verticalLabelPosition=bottom;labelBackgroundColor=#ffffff;verticalAlign=top;html=1;outlineConnect=0;" parent="1" vertex="1">
          <mxGeometry x="109" y="325" width="30" height="60" as="geometry" />
        </mxCell>
        <mxCell id="1PWrfDdkgmt_y7GgeJpY-4" value="Admin" style="shape=umlActor;verticalLabelPosition=bottom;labelBackgroundColor=#ffffff;verticalAlign=top;html=1;outlineConnect=0;" parent="1" vertex="1">
          <mxGeometry x="109" y="420" width="30" height="60" as="geometry" />
        </mxCell>
        <mxCell id="1PWrfDdkgmt_y7GgeJpY-8" value="" style="rounded=0;whiteSpace=wrap;html=1;" parent="1" vertex="1">
          <mxGeometry x="160" y="20" width="500" height="580" as="geometry" />
        </mxCell>
        <mxCell id="1PWrfDdkgmt_y7GgeJpY-9" value="Base de Datos" style="whiteSpace=wrap;html=1;aspect=fixed;" parent="1" vertex="1">
          <mxGeometry x="700" y="20" width="80" height="80" as="geometry" />
        </mxCell>
        <mxCell id="1PWrfDdkgmt_y7GgeJpY-11" value="Plataforma Externa de Pago" style="whiteSpace=wrap;html=1;aspect=fixed;" parent="1" vertex="1">
          <mxGeometry x="700" y="140" width="80" height="80" as="geometry" />
        </mxCell>
        <mxCell id="1PWrfDdkgmt_y7GgeJpY-12" value="Sistema" style="whiteSpace=wrap;html=1;aspect=fixed;" parent="1" vertex="1">
          <mxGeometry x="700" y="380" width="80" height="80" as="geometry" />
        </mxCell>
        <mxCell id="1PWrfDdkgmt_y7GgeJpY-13" value="Modificar datos del producto" style="ellipse;whiteSpace=wrap;html=1;" parent="1" vertex="1">
          <mxGeometry x="200" y="155" width="90" height="50" as="geometry" />
        </mxCell>
        <mxCell id="1PWrfDdkgmt_y7GgeJpY-18" value="Datos para proveedor externo" style="ellipse;whiteSpace=wrap;html=1;" parent="1" vertex="1">
          <mxGeometry x="365" y="240" width="90" height="50" as="geometry" />
        </mxCell>
        <mxCell id="1PWrfDdkgmt_y7GgeJpY-19" value="Datos para Elaboración propia" style="ellipse;whiteSpace=wrap;html=1;" parent="1" vertex="1">
          <mxGeometry x="280" y="275" width="90" height="50" as="geometry" />
        </mxCell>
        <mxCell id="1PWrfDdkgmt_y7GgeJpY-22" value="Confirmar pedido" style="ellipse;whiteSpace=wrap;html=1;" parent="1" vertex="1">
          <mxGeometry x="455" y="430" width="90" height="50" as="geometry" />
        </mxCell>
        <mxCell id="1PWrfDdkgmt_y7GgeJpY-23" value="Asignar a repartidor&amp;nbsp; cercano" style="ellipse;whiteSpace=wrap;html=1;" parent="1" vertex="1">
          <mxGeometry x="430" y="290" width="90" height="50" as="geometry" />
        </mxCell>
        <mxCell id="1PWrfDdkgmt_y7GgeJpY-24" value="Realizar pedido" style="ellipse;whiteSpace=wrap;html=1;" parent="1" vertex="1">
          <mxGeometry x="470" y="540" width="90" height="50" as="geometry" />
        </mxCell>
        <mxCell id="1PWrfDdkgmt_y7GgeJpY-27" value="Realizar pago" style="ellipse;whiteSpace=wrap;html=1;" parent="1" vertex="1">
          <mxGeometry x="570" y="170" width="90" height="50" as="geometry" />
        </mxCell>
        <mxCell id="1PWrfDdkgmt_y7GgeJpY-28" value="Aceptar precio propuesto" style="ellipse;whiteSpace=wrap;html=1;" parent="1" vertex="1">
          <mxGeometry x="560" y="460" width="90" height="50" as="geometry" />
        </mxCell>
        <mxCell id="1PWrfDdkgmt_y7GgeJpY-29" value="Registrarse" style="ellipse;whiteSpace=wrap;html=1;" parent="1" vertex="1">
          <mxGeometry x="170" y="410" width="90" height="50" as="geometry" />
        </mxCell>
        <mxCell id="1PWrfDdkgmt_y7GgeJpY-30" value="Dar de alta" style="ellipse;whiteSpace=wrap;html=1;" parent="1" vertex="1">
          <mxGeometry x="360" y="410" width="90" height="50" as="geometry" />
        </mxCell>
        <mxCell id="1PWrfDdkgmt_y7GgeJpY-31" value="Validar repartidor" style="ellipse;whiteSpace=wrap;html=1;" parent="1" vertex="1">
          <mxGeometry x="170" y="485" width="90" height="50" as="geometry" />
        </mxCell>
        <mxCell id="1PWrfDdkgmt_y7GgeJpY-32" value="Validación fallida" style="ellipse;whiteSpace=wrap;html=1;" parent="1" vertex="1">
          <mxGeometry x="360" y="350" width="90" height="50" as="geometry" />
        </mxCell>
        <mxCell id="1PWrfDdkgmt_y7GgeJpY-33" value="Registrar Menú" style="ellipse;whiteSpace=wrap;html=1;" parent="1" vertex="1">
          <mxGeometry x="200" y="80" width="90" height="50" as="geometry" />
        </mxCell>
        <mxCell id="1PWrfDdkgmt_y7GgeJpY-34" value="Añadir Productos" style="ellipse;whiteSpace=wrap;html=1;" parent="1" vertex="1">
          <mxGeometry x="340" y="470" width="90" height="50" as="geometry" />
        </mxCell>
        <mxCell id="1PWrfDdkgmt_y7GgeJpY-35" value="Añadir tipo de Agrupación de Productos" style="ellipse;whiteSpace=wrap;html=1;" parent="1" vertex="1">
          <mxGeometry x="450" y="155" width="90" height="50" as="geometry" />
        </mxCell>
        <mxCell id="1PWrfDdkgmt_y7GgeJpY-36" value="Añadir sub-Menú" style="ellipse;whiteSpace=wrap;html=1;" parent="1" vertex="1">
          <mxGeometry x="354" y="180" width="90" height="50" as="geometry" />
        </mxCell>
        <mxCell id="1PWrfDdkgmt_y7GgeJpY-37" value="Añadir producto" style="ellipse;whiteSpace=wrap;html=1;" parent="1" vertex="1">
          <mxGeometry x="350" y="90" width="90" height="50" as="geometry" />
        </mxCell>
        <mxCell id="1PWrfDdkgmt_y7GgeJpY-38" value="Registrar producto" style="ellipse;whiteSpace=wrap;html=1;" parent="1" vertex="1">
          <mxGeometry x="190" y="20" width="90" height="50" as="geometry" />
        </mxCell>
        <mxCell id="1PWrfDdkgmt_y7GgeJpY-39" value="GPS" style="whiteSpace=wrap;html=1;aspect=fixed;" parent="1" vertex="1">
          <mxGeometry x="700" y="260" width="80" height="80" as="geometry" />
        </mxCell>
        <mxCell id="1PWrfDdkgmt_y7GgeJpY-41" value="Guardar Km de los repartidores" style="ellipse;whiteSpace=wrap;html=1;" parent="1" vertex="1">
          <mxGeometry x="520" y="325" width="90" height="50" as="geometry" />
        </mxCell>
        <mxCell id="1PWrfDdkgmt_y7GgeJpY-42" value="Liquidación de los repartidores" style="ellipse;whiteSpace=wrap;html=1;" parent="1" vertex="1">
          <mxGeometry x="550" y="410" width="90" height="50" as="geometry" />
        </mxCell>
        <mxCell id="1PWrfDdkgmt_y7GgeJpY-47" value="Actualizar Datos" style="ellipse;whiteSpace=wrap;html=1;" parent="1" vertex="1">
          <mxGeometry x="510" y="60" width="90" height="50" as="geometry" />
        </mxCell>
        <mxCell id="1PWrfDdkgmt_y7GgeJpY-50" value="" style="endArrow=none;html=1;endFill=0;" parent="1" source="1PWrfDdkgmt_y7GgeJpY-13" target="1PWrfDdkgmt_y7GgeJpY-19" edge="1">
          <mxGeometry width="50" height="50" relative="1" as="geometry">
            <mxPoint x="280" y="210" as="sourcePoint" />
            <mxPoint x="490" y="250" as="targetPoint" />
          </mxGeometry>
        </mxCell>
        <mxCell id="QZLc6Dcv_7mxusPoxPZv-28" value="&amp;lt;extends&amp;gt;" style="text;html=1;align=center;verticalAlign=middle;resizable=0;points=[];labelBackgroundColor=#ffffff;" parent="1PWrfDdkgmt_y7GgeJpY-50" vertex="1" connectable="0">
          <mxGeometry x="0.2634" y="-2" relative="1" as="geometry">
            <mxPoint x="-12.780000000000001" y="-8.34" as="offset" />
          </mxGeometry>
        </mxCell>
        <mxCell id="1PWrfDdkgmt_y7GgeJpY-51" value="" style="endArrow=none;html=1;endFill=0;" parent="1" source="1PWrfDdkgmt_y7GgeJpY-13" target="1PWrfDdkgmt_y7GgeJpY-18" edge="1">
          <mxGeometry width="50" height="50" relative="1" as="geometry">
            <mxPoint x="289.0985619789758" y="260.02113009914797" as="sourcePoint" />
            <mxPoint x="490" y="250" as="targetPoint" />
          </mxGeometry>
        </mxCell>
        <mxCell id="QZLc6Dcv_7mxusPoxPZv-29" value="&amp;lt;extends&amp;gt;" style="text;html=1;align=center;verticalAlign=middle;resizable=0;points=[];labelBackgroundColor=#ffffff;" parent="1PWrfDdkgmt_y7GgeJpY-51" vertex="1" connectable="0">
          <mxGeometry x="0.5067" y="1" relative="1" as="geometry">
            <mxPoint x="-24.58" y="-8.82" as="offset" />
          </mxGeometry>
        </mxCell>
        <mxCell id="1PWrfDdkgmt_y7GgeJpY-52" value="" style="endArrow=none;html=1;endFill=0;" parent="1" source="1PWrfDdkgmt_y7GgeJpY-1" target="1PWrfDdkgmt_y7GgeJpY-13" edge="1">
          <mxGeometry width="50" height="50" relative="1" as="geometry">
            <mxPoint x="440" y="300" as="sourcePoint" />
            <mxPoint x="490" y="250" as="targetPoint" />
          </mxGeometry>
        </mxCell>
        <mxCell id="1PWrfDdkgmt_y7GgeJpY-55" value="" style="endArrow=none;html=1;exitX=0.125;exitY=0.375;exitDx=0;exitDy=0;exitPerimeter=0;endFill=0;" parent="1" source="1PWrfDdkgmt_y7GgeJpY-9" target="1PWrfDdkgmt_y7GgeJpY-47" edge="1">
          <mxGeometry width="50" height="50" relative="1" as="geometry">
            <mxPoint x="410" y="300" as="sourcePoint" />
            <mxPoint x="460" y="250" as="targetPoint" />
          </mxGeometry>
        </mxCell>
        <mxCell id="1PWrfDdkgmt_y7GgeJpY-59" value="Añadir datos producto propio" style="ellipse;whiteSpace=wrap;html=1;" parent="1" vertex="1">
          <mxGeometry x="414" y="20" width="90" height="50" as="geometry" />
        </mxCell>
        <mxCell id="1PWrfDdkgmt_y7GgeJpY-60" value="Añadir datos producto externo" style="ellipse;whiteSpace=wrap;html=1;" parent="1" vertex="1">
          <mxGeometry x="570" y="115" width="90" height="50" as="geometry" />
        </mxCell>
        <mxCell id="1PWrfDdkgmt_y7GgeJpY-61" value="" style="endArrow=none;html=1;endFill=0;" parent="1" source="1PWrfDdkgmt_y7GgeJpY-38" target="1PWrfDdkgmt_y7GgeJpY-59" edge="1">
          <mxGeometry width="50" height="50" relative="1" as="geometry">
            <mxPoint x="410" y="300" as="sourcePoint" />
            <mxPoint x="460" y="250" as="targetPoint" />
          </mxGeometry>
        </mxCell>
        <mxCell id="QZLc6Dcv_7mxusPoxPZv-7" value="&amp;lt;extends&amp;gt;" style="text;html=1;align=center;verticalAlign=middle;resizable=0;points=[];labelBackgroundColor=#ffffff;" parent="1PWrfDdkgmt_y7GgeJpY-61" vertex="1" connectable="0">
          <mxGeometry x="0.5224" relative="1" as="geometry">
            <mxPoint as="offset" />
          </mxGeometry>
        </mxCell>
        <mxCell id="1PWrfDdkgmt_y7GgeJpY-62" value="" style="endArrow=none;html=1;endFill=0;" parent="1" source="1PWrfDdkgmt_y7GgeJpY-38" target="1PWrfDdkgmt_y7GgeJpY-60" edge="1">
          <mxGeometry width="50" height="50" relative="1" as="geometry">
            <mxPoint x="410" y="300" as="sourcePoint" />
            <mxPoint x="460" y="250" as="targetPoint" />
          </mxGeometry>
        </mxCell>
        <mxCell id="QZLc6Dcv_7mxusPoxPZv-8" value="&amp;lt;extends&amp;gt;" style="text;html=1;align=center;verticalAlign=middle;resizable=0;points=[];labelBackgroundColor=#ffffff;" parent="1PWrfDdkgmt_y7GgeJpY-62" vertex="1" connectable="0">
          <mxGeometry x="0.2231" y="2" relative="1" as="geometry">
            <mxPoint x="40.71" y="15.94" as="offset" />
          </mxGeometry>
        </mxCell>
        <mxCell id="1PWrfDdkgmt_y7GgeJpY-63" value="" style="endArrow=none;html=1;endFill=0;" parent="1" source="1PWrfDdkgmt_y7GgeJpY-1" target="1PWrfDdkgmt_y7GgeJpY-38" edge="1">
          <mxGeometry width="50" height="50" relative="1" as="geometry">
            <mxPoint x="410" y="300" as="sourcePoint" />
            <mxPoint x="460" y="250" as="targetPoint" />
          </mxGeometry>
        </mxCell>
        <mxCell id="1PWrfDdkgmt_y7GgeJpY-64" value="" style="endArrow=none;html=1;endFill=0;" parent="1" source="1PWrfDdkgmt_y7GgeJpY-1" target="1PWrfDdkgmt_y7GgeJpY-33" edge="1">
          <mxGeometry width="50" height="50" relative="1" as="geometry">
            <mxPoint x="410" y="300" as="sourcePoint" />
            <mxPoint x="460" y="250" as="targetPoint" />
          </mxGeometry>
        </mxCell>
        <mxCell id="1PWrfDdkgmt_y7GgeJpY-65" value="" style="endArrow=none;html=1;endFill=0;" parent="1" source="1PWrfDdkgmt_y7GgeJpY-33" target="1PWrfDdkgmt_y7GgeJpY-36" edge="1">
          <mxGeometry width="50" height="50" relative="1" as="geometry">
            <mxPoint x="410" y="300" as="sourcePoint" />
            <mxPoint x="460" y="250" as="targetPoint" />
          </mxGeometry>
        </mxCell>
        <mxCell id="QZLc6Dcv_7mxusPoxPZv-32" value="&amp;lt;extends&amp;gt;" style="text;html=1;align=center;verticalAlign=middle;resizable=0;points=[];labelBackgroundColor=#ffffff;" parent="1PWrfDdkgmt_y7GgeJpY-65" vertex="1" connectable="0">
          <mxGeometry x="0.3483" y="2" relative="1" as="geometry">
            <mxPoint x="-11.37" y="-5.04" as="offset" />
          </mxGeometry>
        </mxCell>
        <mxCell id="1PWrfDdkgmt_y7GgeJpY-66" value="" style="endArrow=none;html=1;endFill=0;" parent="1" source="1PWrfDdkgmt_y7GgeJpY-33" target="1PWrfDdkgmt_y7GgeJpY-37" edge="1">
          <mxGeometry width="50" height="50" relative="1" as="geometry">
            <mxPoint x="410" y="300" as="sourcePoint" />
            <mxPoint x="460" y="250" as="targetPoint" />
          </mxGeometry>
        </mxCell>
        <mxCell id="QZLc6Dcv_7mxusPoxPZv-30" value="&amp;lt;extends&amp;gt;" style="text;html=1;align=center;verticalAlign=middle;resizable=0;points=[];labelBackgroundColor=#ffffff;" parent="1PWrfDdkgmt_y7GgeJpY-66" vertex="1" connectable="0">
          <mxGeometry x="0.429" relative="1" as="geometry">
            <mxPoint x="-10.629999999999999" y="-9.04" as="offset" />
          </mxGeometry>
        </mxCell>
        <mxCell id="1PWrfDdkgmt_y7GgeJpY-67" value="" style="endArrow=none;html=1;endFill=0;" parent="1" source="1PWrfDdkgmt_y7GgeJpY-33" target="1PWrfDdkgmt_y7GgeJpY-35" edge="1">
          <mxGeometry width="50" height="50" relative="1" as="geometry">
            <mxPoint x="410" y="300" as="sourcePoint" />
            <mxPoint x="460" y="250" as="targetPoint" />
          </mxGeometry>
        </mxCell>
        <mxCell id="QZLc6Dcv_7mxusPoxPZv-31" value="&amp;lt;extends&amp;gt;" style="text;html=1;align=center;verticalAlign=middle;resizable=0;points=[];labelBackgroundColor=#ffffff;" parent="1PWrfDdkgmt_y7GgeJpY-67" vertex="1" connectable="0">
          <mxGeometry x="0.6185" y="3" relative="1" as="geometry">
            <mxPoint as="offset" />
          </mxGeometry>
        </mxCell>
        <mxCell id="1PWrfDdkgmt_y7GgeJpY-68" value="" style="endArrow=none;html=1;endFill=0;" parent="1" source="1PWrfDdkgmt_y7GgeJpY-3" target="1PWrfDdkgmt_y7GgeJpY-29" edge="1">
          <mxGeometry width="50" height="50" relative="1" as="geometry">
            <mxPoint x="410" y="460" as="sourcePoint" />
            <mxPoint x="460" y="410" as="targetPoint" />
          </mxGeometry>
        </mxCell>
        <mxCell id="1PWrfDdkgmt_y7GgeJpY-69" value="" style="endArrow=none;html=1;endFill=0;" parent="1" source="1PWrfDdkgmt_y7GgeJpY-4" target="1PWrfDdkgmt_y7GgeJpY-31" edge="1">
          <mxGeometry width="50" height="50" relative="1" as="geometry">
            <mxPoint x="410" y="460" as="sourcePoint" />
            <mxPoint x="460" y="410" as="targetPoint" />
          </mxGeometry>
        </mxCell>
        <mxCell id="1PWrfDdkgmt_y7GgeJpY-70" value="" style="endArrow=none;html=1;exitX=1;exitY=0.5;exitDx=0;exitDy=0;endFill=0;" parent="1" source="1PWrfDdkgmt_y7GgeJpY-31" target="1PWrfDdkgmt_y7GgeJpY-30" edge="1">
          <mxGeometry width="50" height="50" relative="1" as="geometry">
            <mxPoint x="410" y="460" as="sourcePoint" />
            <mxPoint x="460" y="410" as="targetPoint" />
          </mxGeometry>
        </mxCell>
        <mxCell id="QZLc6Dcv_7mxusPoxPZv-24" value="&amp;lt;extends&amp;gt;" style="text;html=1;align=center;verticalAlign=middle;resizable=0;points=[];labelBackgroundColor=#ffffff;" parent="1PWrfDdkgmt_y7GgeJpY-70" vertex="1" connectable="0">
          <mxGeometry x="0.3605" relative="1" as="geometry">
            <mxPoint x="-35.81" y="-0.82" as="offset" />
          </mxGeometry>
        </mxCell>
        <mxCell id="1PWrfDdkgmt_y7GgeJpY-71" value="" style="endArrow=none;html=1;endFill=0;" parent="1" source="1PWrfDdkgmt_y7GgeJpY-31" target="1PWrfDdkgmt_y7GgeJpY-32" edge="1">
          <mxGeometry width="50" height="50" relative="1" as="geometry">
            <mxPoint x="410" y="460" as="sourcePoint" />
            <mxPoint x="460" y="410" as="targetPoint" />
          </mxGeometry>
        </mxCell>
        <mxCell id="QZLc6Dcv_7mxusPoxPZv-23" value="&amp;lt;extends&amp;gt;" style="text;html=1;align=center;verticalAlign=middle;resizable=0;points=[];labelBackgroundColor=#ffffff;" parent="1PWrfDdkgmt_y7GgeJpY-71" vertex="1" connectable="0">
          <mxGeometry x="0.4772" y="2" relative="1" as="geometry">
            <mxPoint x="-40.47" y="11.59" as="offset" />
          </mxGeometry>
        </mxCell>
        <mxCell id="1PWrfDdkgmt_y7GgeJpY-73" value="" style="endArrow=none;html=1;endFill=0;" parent="1" source="1PWrfDdkgmt_y7GgeJpY-24" target="1PWrfDdkgmt_y7GgeJpY-34" edge="1">
          <mxGeometry width="50" height="50" relative="1" as="geometry">
            <mxPoint x="410" y="410" as="sourcePoint" />
            <mxPoint x="460" y="360" as="targetPoint" />
          </mxGeometry>
        </mxCell>
        <mxCell id="QZLc6Dcv_7mxusPoxPZv-27" value="&amp;lt;includes&amp;gt;" style="text;html=1;align=center;verticalAlign=middle;resizable=0;points=[];labelBackgroundColor=#ffffff;" parent="1PWrfDdkgmt_y7GgeJpY-73" vertex="1" connectable="0">
          <mxGeometry x="-0.4314" y="-1" relative="1" as="geometry">
            <mxPoint x="-12.49" y="-8.78" as="offset" />
          </mxGeometry>
        </mxCell>
        <mxCell id="1PWrfDdkgmt_y7GgeJpY-74" value="" style="endArrow=none;html=1;endFill=0;" parent="1" source="1PWrfDdkgmt_y7GgeJpY-24" target="1PWrfDdkgmt_y7GgeJpY-22" edge="1">
          <mxGeometry width="50" height="50" relative="1" as="geometry">
            <mxPoint x="410" y="410" as="sourcePoint" />
            <mxPoint x="460" y="360" as="targetPoint" />
          </mxGeometry>
        </mxCell>
        <mxCell id="QZLc6Dcv_7mxusPoxPZv-26" value="&amp;lt;includes&amp;gt;" style="text;html=1;align=center;verticalAlign=middle;resizable=0;points=[];labelBackgroundColor=#ffffff;" parent="1PWrfDdkgmt_y7GgeJpY-74" vertex="1" connectable="0">
          <mxGeometry x="-0.4104" y="-1" relative="1" as="geometry">
            <mxPoint x="5.25" y="-18.17" as="offset" />
          </mxGeometry>
        </mxCell>
        <mxCell id="1PWrfDdkgmt_y7GgeJpY-75" value="" style="endArrow=none;html=1;endFill=0;" parent="1" source="1PWrfDdkgmt_y7GgeJpY-24" target="1PWrfDdkgmt_y7GgeJpY-28" edge="1">
          <mxGeometry width="50" height="50" relative="1" as="geometry">
            <mxPoint x="410" y="410" as="sourcePoint" />
            <mxPoint x="460" y="360" as="targetPoint" />
          </mxGeometry>
        </mxCell>
        <mxCell id="QZLc6Dcv_7mxusPoxPZv-25" value="&amp;lt;includes&amp;gt;" style="text;html=1;align=center;verticalAlign=middle;resizable=0;points=[];labelBackgroundColor=#ffffff;" parent="1PWrfDdkgmt_y7GgeJpY-75" vertex="1" connectable="0">
          <mxGeometry x="-0.7079" y="-1" relative="1" as="geometry">
            <mxPoint x="11.229999999999999" y="-7.85" as="offset" />
          </mxGeometry>
        </mxCell>
        <mxCell id="1PWrfDdkgmt_y7GgeJpY-76" value="" style="endArrow=none;html=1;endFill=0;" parent="1" source="1PWrfDdkgmt_y7GgeJpY-39" target="1PWrfDdkgmt_y7GgeJpY-23" edge="1">
          <mxGeometry width="50" height="50" relative="1" as="geometry">
            <mxPoint x="410" y="350" as="sourcePoint" />
            <mxPoint x="460" y="300" as="targetPoint" />
          </mxGeometry>
        </mxCell>
        <mxCell id="1PWrfDdkgmt_y7GgeJpY-77" value="" style="endArrow=none;html=1;endFill=0;" parent="1" source="1PWrfDdkgmt_y7GgeJpY-39" target="1PWrfDdkgmt_y7GgeJpY-41" edge="1">
          <mxGeometry width="50" height="50" relative="1" as="geometry">
            <mxPoint x="410" y="350" as="sourcePoint" />
            <mxPoint x="460" y="300" as="targetPoint" />
          </mxGeometry>
        </mxCell>
        <mxCell id="1PWrfDdkgmt_y7GgeJpY-78" value="" style="endArrow=none;html=1;endFill=0;" parent="1" source="1PWrfDdkgmt_y7GgeJpY-12" target="1PWrfDdkgmt_y7GgeJpY-42" edge="1">
          <mxGeometry width="50" height="50" relative="1" as="geometry">
            <mxPoint x="410" y="350" as="sourcePoint" />
            <mxPoint x="460" y="300" as="targetPoint" />
          </mxGeometry>
        </mxCell>
        <mxCell id="1PWrfDdkgmt_y7GgeJpY-79" value="" style="endArrow=none;html=1;endFill=0;" parent="1" source="1PWrfDdkgmt_y7GgeJpY-11" target="1PWrfDdkgmt_y7GgeJpY-27" edge="1">
          <mxGeometry width="50" height="50" relative="1" as="geometry">
            <mxPoint x="410" y="350" as="sourcePoint" />
            <mxPoint x="460" y="300" as="targetPoint" />
          </mxGeometry>
        </mxCell>
        <mxCell id="QZLc6Dcv_7mxusPoxPZv-1" value="" style="endArrow=none;html=1;endFill=0;" parent="1" source="1PWrfDdkgmt_y7GgeJpY-2" target="1PWrfDdkgmt_y7GgeJpY-24" edge="1">
          <mxGeometry width="50" height="50" relative="1" as="geometry">
            <mxPoint x="390" y="420" as="sourcePoint" />
            <mxPoint x="440" y="370" as="targetPoint" />
          </mxGeometry>
        </mxCell>
        <mxCell id="QZLc6Dcv_7mxusPoxPZv-2" value="Usuario" style="shape=umlActor;verticalLabelPosition=bottom;labelBackgroundColor=#ffffff;verticalAlign=top;html=1;outlineConnect=0;" parent="1" vertex="1">
          <mxGeometry y="525" width="30" height="60" as="geometry" />
        </mxCell>
        <mxCell id="QZLc6Dcv_7mxusPoxPZv-3" value="Autenticarse" style="ellipse;whiteSpace=wrap;html=1;" parent="1" vertex="1">
          <mxGeometry x="210" y="535" width="90" height="50" as="geometry" />
        </mxCell>
        <mxCell id="QZLc6Dcv_7mxusPoxPZv-5" value="" style="endArrow=none;html=1;endFill=0;" parent="1" source="QZLc6Dcv_7mxusPoxPZv-2" target="QZLc6Dcv_7mxusPoxPZv-3" edge="1">
          <mxGeometry width="50" height="50" relative="1" as="geometry">
            <mxPoint x="390" y="420" as="sourcePoint" />
            <mxPoint x="440" y="370" as="targetPoint" />
          </mxGeometry>
        </mxCell>
        <mxCell id="QZLc6Dcv_7mxusPoxPZv-11" value="" style="endArrow=block;html=1;endFill=0;" parent="1" source="1PWrfDdkgmt_y7GgeJpY-2" target="QZLc6Dcv_7mxusPoxPZv-2" edge="1">
          <mxGeometry width="50" height="50" relative="1" as="geometry">
            <mxPoint x="390" y="400" as="sourcePoint" />
            <mxPoint x="440" y="350" as="targetPoint" />
          </mxGeometry>
        </mxCell>
        <mxCell id="QZLc6Dcv_7mxusPoxPZv-12" value="" style="endArrow=block;html=1;endFill=0;" parent="1" source="1PWrfDdkgmt_y7GgeJpY-4" target="QZLc6Dcv_7mxusPoxPZv-2" edge="1">
          <mxGeometry width="50" height="50" relative="1" as="geometry">
            <mxPoint x="390" y="400" as="sourcePoint" />
            <mxPoint x="440" y="350" as="targetPoint" />
          </mxGeometry>
        </mxCell>
        <mxCell id="QZLc6Dcv_7mxusPoxPZv-13" value="" style="endArrow=block;html=1;endFill=0;" parent="1" source="1PWrfDdkgmt_y7GgeJpY-3" target="QZLc6Dcv_7mxusPoxPZv-2" edge="1">
          <mxGeometry width="50" height="50" relative="1" as="geometry">
            <mxPoint x="390" y="400" as="sourcePoint" />
            <mxPoint x="440" y="350" as="targetPoint" />
          </mxGeometry>
        </mxCell>
        <mxCell id="QZLc6Dcv_7mxusPoxPZv-14" value="" style="endArrow=block;html=1;endFill=0;" parent="1" source="1PWrfDdkgmt_y7GgeJpY-1" target="QZLc6Dcv_7mxusPoxPZv-2" edge="1">
          <mxGeometry width="50" height="50" relative="1" as="geometry">
            <mxPoint x="390" y="400" as="sourcePoint" />
            <mxPoint x="440" y="350" as="targetPoint" />
          </mxGeometry>
        </mxCell>
        <mxCell id="QZLc6Dcv_7mxusPoxPZv-15" value="" style="endArrow=classic;dashed=1;html=1;endFill=1;" parent="1" source="1PWrfDdkgmt_y7GgeJpY-22" target="1PWrfDdkgmt_y7GgeJpY-23" edge="1">
          <mxGeometry width="50" height="50" relative="1" as="geometry">
            <mxPoint x="390" y="400" as="sourcePoint" />
            <mxPoint x="440" y="350" as="targetPoint" />
          </mxGeometry>
        </mxCell>
        <mxCell id="QZLc6Dcv_7mxusPoxPZv-16" value="&amp;lt;include&amp;gt;" style="text;html=1;align=center;verticalAlign=middle;resizable=0;points=[];labelBackgroundColor=#ffffff;" parent="QZLc6Dcv_7mxusPoxPZv-15" vertex="1" connectable="0">
          <mxGeometry x="0.4545" relative="1" as="geometry">
            <mxPoint as="offset" />
          </mxGeometry>
        </mxCell>
        <mxCell id="QZLc6Dcv_7mxusPoxPZv-17" value="" style="endArrow=classic;dashed=1;html=1;entryX=0.367;entryY=1;entryDx=0;entryDy=0;entryPerimeter=0;endFill=1;" parent="1" source="1PWrfDdkgmt_y7GgeJpY-42" target="1PWrfDdkgmt_y7GgeJpY-41" edge="1">
          <mxGeometry width="50" height="50" relative="1" as="geometry">
            <mxPoint x="390" y="400" as="sourcePoint" />
            <mxPoint x="440" y="350" as="targetPoint" />
          </mxGeometry>
        </mxCell>
        <mxCell id="QZLc6Dcv_7mxusPoxPZv-18" value="&amp;lt;include&amp;gt;" style="text;html=1;align=center;verticalAlign=middle;resizable=0;points=[];labelBackgroundColor=#ffffff;" parent="QZLc6Dcv_7mxusPoxPZv-17" vertex="1" connectable="0">
          <mxGeometry x="0.546" y="3" relative="1" as="geometry">
            <mxPoint x="12.84" y="8.55" as="offset" />
          </mxGeometry>
        </mxCell>
        <mxCell id="QZLc6Dcv_7mxusPoxPZv-19" value="" style="endArrow=none;dashed=1;html=1;endFill=0;startArrow=classicThin;startFill=1;" parent="1" source="1PWrfDdkgmt_y7GgeJpY-27" target="1PWrfDdkgmt_y7GgeJpY-42" edge="1">
          <mxGeometry width="50" height="50" relative="1" as="geometry">
            <mxPoint x="390" y="400" as="sourcePoint" />
            <mxPoint x="440" y="350" as="targetPoint" />
            <Array as="points">
              <mxPoint x="610" y="330" />
            </Array>
          </mxGeometry>
        </mxCell>
        <mxCell id="QZLc6Dcv_7mxusPoxPZv-20" value="&amp;lt;include&amp;gt;" style="text;html=1;align=center;verticalAlign=middle;resizable=0;points=[];labelBackgroundColor=#ffffff;" parent="QZLc6Dcv_7mxusPoxPZv-19" vertex="1" connectable="0">
          <mxGeometry x="-0.6075" y="1" relative="1" as="geometry">
            <mxPoint as="offset" />
          </mxGeometry>
        </mxCell>
        <mxCell id="QZLc6Dcv_7mxusPoxPZv-21" value="" style="endArrow=classic;dashed=1;html=1;endFill=1;" parent="1" source="1PWrfDdkgmt_y7GgeJpY-38" target="1PWrfDdkgmt_y7GgeJpY-47" edge="1">
          <mxGeometry width="50" height="50" relative="1" as="geometry">
            <mxPoint x="390" y="400" as="sourcePoint" />
            <mxPoint x="440" y="350" as="targetPoint" />
          </mxGeometry>
        </mxCell>
        <mxCell id="QZLc6Dcv_7mxusPoxPZv-22" value="&amp;lt;include&amp;gt;" style="text;html=1;align=center;verticalAlign=middle;resizable=0;points=[];labelBackgroundColor=#ffffff;" parent="QZLc6Dcv_7mxusPoxPZv-21" vertex="1" connectable="0">
          <mxGeometry x="-0.3311" relative="1" as="geometry">
            <mxPoint x="53.67" y="9.889999999999999" as="offset" />
          </mxGeometry>
        </mxCell>
        <mxCell id="QZLc6Dcv_7mxusPoxPZv-33" value="Liquidación de Restaurantes" style="ellipse;whiteSpace=wrap;html=1;" parent="1" vertex="1">
          <mxGeometry x="480" y="230" width="90" height="50" as="geometry" />
        </mxCell>
        <mxCell id="QZLc6Dcv_7mxusPoxPZv-34" value="" style="endArrow=none;html=1;endFill=0;" parent="1" source="1PWrfDdkgmt_y7GgeJpY-12" target="QZLc6Dcv_7mxusPoxPZv-33" edge="1">
          <mxGeometry width="50" height="50" relative="1" as="geometry">
            <mxPoint x="390" y="400" as="sourcePoint" />
            <mxPoint x="440" y="350" as="targetPoint" />
          </mxGeometry>
        </mxCell>
        <mxCell id="QZLc6Dcv_7mxusPoxPZv-36" value="" style="endArrow=classic;dashed=1;html=1;endFill=1;" parent="1" source="1PWrfDdkgmt_y7GgeJpY-28" target="1PWrfDdkgmt_y7GgeJpY-27" edge="1">
          <mxGeometry width="50" height="50" relative="1" as="geometry">
            <mxPoint x="390" y="400" as="sourcePoint" />
            <mxPoint x="440" y="350" as="targetPoint" />
            <Array as="points">
              <mxPoint x="700" y="495" />
            </Array>
          </mxGeometry>
        </mxCell>
        <mxCell id="QZLc6Dcv_7mxusPoxPZv-37" value="" style="endArrow=none;dashed=1;html=1;exitX=0.322;exitY=0.04;exitDx=0;exitDy=0;exitPerimeter=0;" parent="1" source="QZLc6Dcv_7mxusPoxPZv-33" target="1PWrfDdkgmt_y7GgeJpY-27" edge="1">
          <mxGeometry width="50" height="50" relative="1" as="geometry">
            <mxPoint x="390" y="400" as="sourcePoint" />
            <mxPoint x="440" y="350" as="targetPoint" />
          </mxGeometry>
        </mxCell>
        <mxCell id="QZLc6Dcv_7mxusPoxPZv-38" value="&amp;lt;includes&amp;gt;" style="text;html=1;align=center;verticalAlign=middle;resizable=0;points=[];labelBackgroundColor=#ffffff;" parent="QZLc6Dcv_7mxusPoxPZv-37" vertex="1" connectable="0">
          <mxGeometry x="0.478" y="1" relative="1" as="geometry">
            <mxPoint as="offset" />
          </mxGeometry>
        </mxCell>
        <mxCell id="9-iavBqD0uZxX6o574j2-1" value="Registrar Cliente" style="ellipse;whiteSpace=wrap;html=1;" vertex="1" parent="1">
          <mxGeometry x="340" y="540" width="90" height="50" as="geometry" />
        </mxCell>
        <mxCell id="9-iavBqD0uZxX6o574j2-2" value="" style="endArrow=none;html=1;endFill=0;" edge="1" parent="1" source="1PWrfDdkgmt_y7GgeJpY-2" target="9-iavBqD0uZxX6o574j2-1">
          <mxGeometry width="50" height="50" relative="1" as="geometry">
            <mxPoint x="390" y="490" as="sourcePoint" />
            <mxPoint x="440" y="440" as="targetPoint" />
          </mxGeometry>
        </mxCell>
        <mxCell id="9-iavBqD0uZxX6o574j2-3" value="Registrar dueño" style="ellipse;whiteSpace=wrap;html=1;" vertex="1" parent="1">
          <mxGeometry x="170" y="205" width="90" height="50" as="geometry" />
        </mxCell>
        <mxCell id="9-iavBqD0uZxX6o574j2-4" value="" style="endArrow=none;html=1;endFill=0;" edge="1" parent="1" source="1PWrfDdkgmt_y7GgeJpY-1" target="9-iavBqD0uZxX6o574j2-3">
          <mxGeometry width="50" height="50" relative="1" as="geometry">
            <mxPoint x="390" y="310" as="sourcePoint" />
            <mxPoint x="440" y="260" as="targetPoint" />
          </mxGeometry>
        </mxCell>
        <mxCell id="9-iavBqD0uZxX6o574j2-5" value="&amp;lt;include&amp;gt;" style="text;html=1;align=center;verticalAlign=middle;resizable=0;points=[];labelBackgroundColor=#ffffff;" vertex="1" connectable="0" parent="1">
          <mxGeometry x="640.0041534146637" y="279.99636997628966" as="geometry">
            <mxPoint as="offset" />
          </mxGeometry>
        </mxCell>
        <mxCell id="9-iavBqD0uZxX6o574j2-6" value="Antes de realizar cualquier acción todos los usuarios han de autenticarse" style="shape=note;whiteSpace=wrap;html=1;backgroundOutline=1;darkOpacity=0.05;size=26;" vertex="1" parent="1">
          <mxGeometry x="700" y="520" width="120" height="130" as="geometry" />
        </mxCell>
        <mxCell id="9-iavBqD0uZxX6o574j2-7" value="Proveedores externos" style="ellipse;whiteSpace=wrap;html=1;" vertex="1" parent="1">
          <mxGeometry x="270" y="360" width="90" height="50" as="geometry" />
        </mxCell>
        <mxCell id="9-iavBqD0uZxX6o574j2-8" value="Modificar menú" style="ellipse;whiteSpace=wrap;html=1;" vertex="1" parent="1">
          <mxGeometry x="170" y="260" width="90" height="50" as="geometry" />
        </mxCell>
        <mxCell id="9-iavBqD0uZxX6o574j2-9" value="Elaboración propia" style="ellipse;whiteSpace=wrap;html=1;" vertex="1" parent="1">
          <mxGeometry x="170" y="360" width="90" height="50" as="geometry" />
        </mxCell>
        <mxCell id="9-iavBqD0uZxX6o574j2-10" value="" style="endArrow=none;html=1;endFill=0;" edge="1" parent="1" source="9-iavBqD0uZxX6o574j2-8" target="9-iavBqD0uZxX6o574j2-9">
          <mxGeometry width="50" height="50" relative="1" as="geometry">
            <mxPoint x="500" y="330" as="sourcePoint" />
            <mxPoint x="550" y="280" as="targetPoint" />
            <Array as="points">
              <mxPoint x="215" y="330" />
            </Array>
          </mxGeometry>
        </mxCell>
        <mxCell id="9-iavBqD0uZxX6o574j2-14" value="&amp;lt;extends&amp;gt;" style="text;html=1;align=center;verticalAlign=middle;resizable=0;points=[];labelBackgroundColor=#ffffff;" vertex="1" connectable="0" parent="9-iavBqD0uZxX6o574j2-10">
          <mxGeometry x="0.6267" relative="1" as="geometry">
            <mxPoint y="-20.67" as="offset" />
          </mxGeometry>
        </mxCell>
        <mxCell id="9-iavBqD0uZxX6o574j2-11" value="" style="endArrow=none;html=1;endFill=0;" edge="1" parent="1" source="9-iavBqD0uZxX6o574j2-8" target="9-iavBqD0uZxX6o574j2-7">
          <mxGeometry width="50" height="50" relative="1" as="geometry">
            <mxPoint x="210" y="480" as="sourcePoint" />
            <mxPoint x="260" y="430" as="targetPoint" />
          </mxGeometry>
        </mxCell>
        <mxCell id="9-iavBqD0uZxX6o574j2-13" value="&amp;lt;extends&amp;gt;" style="text;html=1;align=center;verticalAlign=middle;resizable=0;points=[];labelBackgroundColor=#ffffff;" vertex="1" connectable="0" parent="9-iavBqD0uZxX6o574j2-11">
          <mxGeometry x="0.4145" y="1" relative="1" as="geometry">
            <mxPoint x="1" as="offset" />
          </mxGeometry>
        </mxCell>
        <mxCell id="9-iavBqD0uZxX6o574j2-12" value="" style="endArrow=none;html=1;exitX=0.5;exitY=0.5;exitDx=0;exitDy=0;exitPerimeter=0;entryX=0;entryY=0.5;entryDx=0;entryDy=0;endFill=0;" edge="1" parent="1" source="1PWrfDdkgmt_y7GgeJpY-1" target="9-iavBqD0uZxX6o574j2-8">
          <mxGeometry width="50" height="50" relative="1" as="geometry">
            <mxPoint x="210" y="360" as="sourcePoint" />
            <mxPoint x="260" y="310" as="targetPoint" />
          </mxGeometry>
        </mxCell>
      </root>
    </mxGraphModel>
  </diagram>
</mxfile>
